<svg width="229" height="36" viewBox="0 0 229 36" fill="none" xmlns="http://www.w3.org/2000/svg">
<path d="M0 14.012C0 17.66 3.002 20.662 6.65 20.662C10.336 20.662 13.338 17.66 13.338 14.012C13.338 10.326 10.336 7.324 6.65 7.324C3.002 7.324 0 10.326 0 14.012ZM0 34H26.676V7.324L0 34Z" fill="white"/>
<path d="M47.184 34.432C50.352 34.432 53.232 33.496 54.96 32.776L55.824 24.784H55.608C53.304 29.824 50.784 33.928 47.04 33.928C42.936 33.928 41.208 28.492 41.208 20.86C41.208 13.372 42.576 7.864 47.04 7.864C50.784 7.864 53.196 11.86 55.032 16.252H55.248L55.032 9.232C53.304 8.368 50.352 7.36 47.184 7.36C39.552 7.36 33.864 12.94 33.864 20.968C33.864 29.248 38.904 34.432 47.184 34.432ZM69.6972 34.432C77.3292 34.432 82.1172 28.888 82.1172 20.824C82.1172 12.616 77.4732 7.36 69.7692 7.36C62.1372 7.36 57.3492 12.904 57.3492 20.968C57.3492 29.176 61.9932 34.432 69.6972 34.432ZM69.7692 33.928C66.0252 33.928 64.6932 28.168 64.6932 20.896C64.6932 13.408 65.9892 7.864 69.7332 7.864C73.4052 7.864 74.7732 13.624 74.7732 20.896C74.7732 28.384 73.4412 33.928 69.7692 33.928ZM110.509 12.472C110.365 9.808 110.653 8.224 113.101 8.008V7.792H103.993L98.8448 23.452L93.0488 7.792H83.3288V8.008C85.0568 8.296 86.3528 9.412 86.2088 11.968L85.4888 25.72C85.2368 30.544 84.6608 33.568 82.3568 33.784V34H89.5568V33.784C87.1088 33.64 85.8848 30.58 86.1368 25.72L86.9288 10.996L95.7848 34H96.0728L103.633 10.96L104.641 29.32C104.785 31.984 104.641 33.784 102.193 33.784V34H114.181V33.784C111.733 33.784 111.589 31.984 111.445 29.32L110.509 12.472ZM114.645 7.792V8.008C117.093 8.008 117.237 9.808 117.237 12.472V29.32C117.237 31.984 117.093 33.784 114.645 33.784V34H126.885V33.784C124.437 33.784 124.149 31.984 124.149 29.32V23.2C124.941 23.488 126.129 23.812 127.533 23.812C133.473 23.812 136.569 20.464 136.569 15.352C136.569 10.816 133.365 7.792 126.885 7.792H114.645ZM126.021 22.912C124.653 22.912 124.149 22.372 124.149 21.184V9.664C124.149 8.8 124.653 8.368 125.517 8.368H125.841C128.541 8.368 129.657 11.824 129.657 15.568C129.657 20.356 128.037 22.912 126.021 22.912ZM150.205 34.432C157.837 34.432 162.625 28.888 162.625 20.824C162.625 12.616 157.981 7.36 150.277 7.36C142.645 7.36 137.857 12.904 137.857 20.968C137.857 29.176 142.501 34.432 150.205 34.432ZM150.277 33.928C146.533 33.928 145.201 28.168 145.201 20.896C145.201 13.408 146.497 7.864 150.241 7.864C153.913 7.864 155.281 13.624 155.281 20.896C155.281 28.384 153.949 33.928 150.277 33.928ZM171.891 34.432C177.363 34.432 181.071 30.616 181.071 25.468C181.071 20.716 178.227 19.06 175.131 17.62L173.187 16.72C170.739 15.604 168.759 14.596 168.759 11.968C168.759 9.484 170.235 7.864 172.791 7.864C175.779 7.864 177.579 10.096 179.883 14.416H180.099V8.44C178.371 7.936 175.167 7.36 173.187 7.36C168.255 7.36 165.051 10.924 165.051 15.748C165.051 20.428 167.967 22.156 169.947 23.056L171.891 23.956C174.699 25.252 177.363 26.548 177.363 29.536C177.363 32.236 175.419 33.928 172.827 33.928C168.831 33.928 166.671 30.832 164.655 25.936H164.439L164.727 33.316C166.527 33.892 169.839 34.432 171.891 34.432ZM202.448 26.584C199.64 32.2 196.976 33.424 193.412 33.424H193.124C191.936 33.424 191.684 32.74 191.684 31.768V20.644H192.404C196.148 20.644 197.444 21.688 198.524 24.712H198.74V16.36H198.524C197.516 19.024 196.148 20.068 192.404 20.068H191.684V8.368H193.052C197.084 8.368 199.028 9.88 201.476 14.416H201.692L201.116 7.792H182.18V8.008C184.628 8.008 184.772 9.808 184.772 12.472V29.32C184.772 31.984 184.628 33.784 182.18 33.784V34H201.692L202.664 26.584H202.448ZM222.742 24.784C221.698 22.804 220.762 21.58 219.682 21.04V20.968C223.21 20.104 225.406 17.8 225.406 14.416C225.406 10.24 222.454 7.792 215.974 7.792H203.59V8.008C206.038 8.008 206.182 9.808 206.182 12.472V29.32C206.182 31.984 206.038 33.784 203.59 33.784V34H215.83V33.784C213.382 33.784 213.094 31.984 213.094 29.32V21.4H213.166C214.318 21.4 214.498 21.76 214.966 22.876C219.286 33.532 219.97 34.144 223.354 34.144C224.794 34.144 227.602 34.072 228.466 34V33.784C227.314 33.424 226.702 32.272 222.742 24.784ZM213.094 9.664C213.094 8.8 213.598 8.368 214.462 8.368H214.786C217.27 8.368 218.422 10.996 218.422 14.92C218.422 18.916 216.982 20.824 214.678 20.824H213.094V9.664Z" fill="white"/>
</svg>
